<?xml version="1.0" encoding="UTF-8" standalone="no"?>
<!-- Created with Inkscape (http://www.inkscape.org/) -->

<svg
   xmlns:dc="http://purl.org/dc/elements/1.1/"
   xmlns:cc="http://creativecommons.org/ns#"
   xmlns:rdf="http://www.w3.org/1999/02/22-rdf-syntax-ns#"
   xmlns:svg="http://www.w3.org/2000/svg"
   xmlns="http://www.w3.org/2000/svg"
   xmlns:xlink="http://www.w3.org/1999/xlink"
   xmlns:sodipodi="http://sodipodi.sourceforge.net/DTD/sodipodi-0.dtd"
   xmlns:inkscape="http://www.inkscape.org/namespaces/inkscape"
   width="744.09448819"
   height="1052.3622047"
   id="svg2"
   version="1.1"
   inkscape:version="0.47 r22583"
   inkscape:export-filename="C:\Users\Jonas\htdocs\igniteithaca\themap.png"
   inkscape:export-xdpi="340.88"
   inkscape:export-ydpi="340.88"
   sodipodi:docname="ignite ithaca logo.svg">
  <defs
     id="defs4">
    <inkscape:perspective
       sodipodi:type="inkscape:persp3d"
       inkscape:vp_x="0 : 526.18109 : 1"
       inkscape:vp_y="0 : 1000 : 0"
       inkscape:vp_z="744.09448 : 526.18109 : 1"
       inkscape:persp3d-origin="372.04724 : 350.78739 : 1"
       id="perspective10" />
    <inkscape:perspective
       id="perspective2824"
       inkscape:persp3d-origin="0.5 : 0.33333333 : 1"
       inkscape:vp_z="1 : 0.5 : 1"
       inkscape:vp_y="0 : 1000 : 0"
       inkscape:vp_x="0 : 0.5 : 1"
       sodipodi:type="inkscape:persp3d" />
    <inkscape:perspective
       id="perspective2827"
       inkscape:persp3d-origin="0.5 : 0.33333333 : 1"
       inkscape:vp_z="1 : 0.5 : 1"
       inkscape:vp_y="0 : 1000 : 0"
       inkscape:vp_x="0 : 0.5 : 1"
       sodipodi:type="inkscape:persp3d" />
    <inkscape:perspective
       id="perspective2858"
       inkscape:persp3d-origin="0.5 : 0.33333333 : 1"
       inkscape:vp_z="1 : 0.5 : 1"
       inkscape:vp_y="0 : 1000 : 0"
       inkscape:vp_x="0 : 0.5 : 1"
       sodipodi:type="inkscape:persp3d" />
    <inkscape:perspective
       id="perspective3646"
       inkscape:persp3d-origin="0.5 : 0.33333333 : 1"
       inkscape:vp_z="1 : 0.5 : 1"
       inkscape:vp_y="0 : 1000 : 0"
       inkscape:vp_x="0 : 0.5 : 1"
       sodipodi:type="inkscape:persp3d" />
    <inkscape:perspective
       id="perspective4519"
       inkscape:persp3d-origin="0.5 : 0.33333333 : 1"
       inkscape:vp_z="1 : 0.5 : 1"
       inkscape:vp_y="0 : 1000 : 0"
       inkscape:vp_x="0 : 0.5 : 1"
       sodipodi:type="inkscape:persp3d" />
    <inkscape:perspective
       id="perspective4589"
       inkscape:persp3d-origin="0.5 : 0.33333333 : 1"
       inkscape:vp_z="1 : 0.5 : 1"
       inkscape:vp_y="0 : 1000 : 0"
       inkscape:vp_x="0 : 0.5 : 1"
       sodipodi:type="inkscape:persp3d" />
    <inkscape:perspective
       id="perspective4611"
       inkscape:persp3d-origin="0.5 : 0.33333333 : 1"
       inkscape:vp_z="1 : 0.5 : 1"
       inkscape:vp_y="0 : 1000 : 0"
       inkscape:vp_x="0 : 0.5 : 1"
       sodipodi:type="inkscape:persp3d" />
    <inkscape:perspective
       id="perspective4633"
       inkscape:persp3d-origin="0.5 : 0.33333333 : 1"
       inkscape:vp_z="1 : 0.5 : 1"
       inkscape:vp_y="0 : 1000 : 0"
       inkscape:vp_x="0 : 0.5 : 1"
       sodipodi:type="inkscape:persp3d" />
    <inkscape:perspective
       id="perspective3609"
       inkscape:persp3d-origin="0.5 : 0.33333333 : 1"
       inkscape:vp_z="1 : 0.5 : 1"
       inkscape:vp_y="0 : 1000 : 0"
       inkscape:vp_x="0 : 0.5 : 1"
       sodipodi:type="inkscape:persp3d" />
  </defs>
  <sodipodi:namedview
     id="base"
     pagecolor="#ffffff"
     bordercolor="#666666"
     borderopacity="1.0"
     inkscape:pageopacity="0.0"
     inkscape:pageshadow="2"
     inkscape:zoom="5.3089577"
     inkscape:cx="300.34061"
     inkscape:cy="926.40663"
     inkscape:document-units="px"
     inkscape:current-layer="layer1"
     showgrid="false"
     inkscape:window-width="1920"
     inkscape:window-height="1058"
     inkscape:window-x="1272"
     inkscape:window-y="-8"
     inkscape:window-maximized="1" />
  <metadata
     id="metadata7">
    <rdf:RDF>
      <cc:Work
         rdf:about="">
        <dc:format>image/svg+xml</dc:format>
        <dc:type
           rdf:resource="http://purl.org/dc/dcmitype/StillImage" />
        <dc:title></dc:title>
      </cc:Work>
    </rdf:RDF>
  </metadata>
  <g
     inkscape:label="Layer 1"
     inkscape:groupmode="layer"
     id="layer1">
    <image
       y="78.710899"
       x="11.850657"
       id="image2860"
       height="79.207359"
       width="718.14679"
       xlink:href="file:///C:/Users/Jonas/htdocs/igniteithaca/themap-only.gif" />
    <path
       sodipodi:type="arc"
       style="fill:none;fill-opacity:1;stroke:#223343;stroke-width:0.20000000000000001;stroke-miterlimit:4;stroke-opacity:1;stroke-dasharray:none"
       id="path4579"
       sodipodi:cx="306.47269"
       sodipodi:cy="122.73956"
       sodipodi:rx="4.1712165"
       sodipodi:ry="4.1712165"
       d="m 310.6439,122.73956 a 4.1712165,4.1712165 0 1 1 -8.34243,0 4.1712165,4.1712165 0 1 1 8.34243,0 z" />
    <path
       transform="matrix(1.8709973,0,0,1.8709973,-266.93689,-106.90583)"
       sodipodi:type="arc"
       style="fill:none;stroke:#223343;stroke-width:0.08283098999999999;stroke-miterlimit:4;stroke-opacity:1;stroke-dasharray:none"
       id="path4579-0"
       sodipodi:cx="306.47269"
       sodipodi:cy="122.73956"
       sodipodi:rx="4.1712165"
       sodipodi:ry="4.1712165"
       d="m 310.6439,122.73956 a 4.1712165,4.1712165 0 1 1 -8.34243,0 4.1712165,4.1712165 0 1 1 8.34243,0 z" />
    <path
       transform="matrix(2.7779132,0,0,2.7779132,-544.88183,-218.22029)"
       sodipodi:type="arc"
       style="fill:none;stroke:#223343;stroke-width:0.03663492000000000;stroke-miterlimit:4;stroke-opacity:1;stroke-dasharray:none"
       id="path4579-0-9"
       sodipodi:cx="306.47269"
       sodipodi:cy="122.73956"
       sodipodi:rx="4.1712165"
       sodipodi:ry="4.1712165"
       d="m 310.6439,122.73956 a 4.1712165,4.1712165 0 1 1 -8.34243,0 4.1712165,4.1712165 0 1 1 8.34243,0 z" />
    <path
       transform="matrix(3.7796602,0,0,3.7796602,-851.91055,-341.1837)"
       sodipodi:type="arc"
       style="fill:none;stroke:#223343;stroke-width:0.03663492000000000;stroke-miterlimit:4;stroke-opacity:1;stroke-dasharray:none"
       id="path4579-0-9-4"
       sodipodi:cx="306.47269"
       sodipodi:cy="122.73956"
       sodipodi:rx="4.1712165"
       sodipodi:ry="4.1712165"
       d="m 310.6439,122.73956 a 4.1712165,4.1712165 0 1 1 -8.34243,0 4.1712165,4.1712165 0 1 1 8.34243,0 z" />
    <path
       id="path2832"
       d="m 321.70686,122.27298 c -1.10257,-0.38083 -1.78823,-1.45852 -1.70126,-2.67398 0.0959,-1.33966 1.11005,-2.40227 2.39095,-2.50509 0.58756,-0.0471 1.12092,0.0791 1.49262,0.35332 0.28189,0.20796 0.39567,0.19176 0.39567,-0.0564 0,-0.14631 0.0469,-0.15901 0.50677,-0.13711 l 0.50676,0.0242 0,2.47298 0,2.47299 -0.50676,0.0242 c -0.45985,0.0219 -0.50677,0.009 -0.50677,-0.13711 0,-0.25539 -0.12811,-0.2701 -0.44997,-0.0517 -0.58139,0.39453 -1.37413,0.47417 -2.12801,0.21378 z m 1.90605,-1.19261 c 0.87979,-0.69992 0.87979,-1.95906 0,-2.659 -0.25133,-0.19994 -0.39853,-0.24971 -0.81081,-0.27413 -0.4494,-0.0266 -0.54491,-0.003 -0.8851,0.21514 -0.42835,0.27517 -0.68924,0.70411 -0.76517,1.25808 -0.0746,0.54402 0.24607,1.18561 0.75621,1.51322 0.34986,0.22468 0.44252,0.24756 0.89406,0.22082 0.41228,-0.0244 0.55948,-0.0742 0.81081,-0.27413 z m 4.26385,1.20008 c -1.18186,-0.42199 -1.86685,-1.4449 -1.7935,-2.67824 0.0603,-1.01513 0.61956,-1.85231 1.51893,-2.27407 0.38911,-0.18248 0.56152,-0.21242 1.22324,-0.21242 0.6512,0 0.83197,0.0303 1.16943,0.19645 0.4339,0.21355 1.01977,0.74841 1.01977,0.93099 0,0.12169 -0.64217,0.53473 -0.83139,0.53473 -0.0623,0 -0.20178,-0.0959 -0.30989,-0.21315 -0.58903,-0.63873 -1.75042,-0.56129 -2.29527,0.15306 -0.11143,0.14616 -0.24887,0.43838 -0.30531,0.6494 -0.12486,0.46684 -0.009,1.00476 0.30531,1.41675 0.54485,0.71434 1.70624,0.79178 2.29527,0.15305 0.10806,-0.11722 0.24756,-0.21315 0.30989,-0.21315 0.19778,0 0.83139,0.41568 0.83139,0.54544 0,0.19507 -0.5634,0.67777 -1.05245,0.90172 -0.59842,0.274 -1.49304,0.32096 -2.08542,0.10945 z m 5.03166,-0.0227 c -0.56699,-0.21805 -1.08143,-0.69221 -1.36939,-1.26213 -0.21266,-0.42091 -0.23973,-0.55684 -0.23976,-1.20421 -3e-5,-0.57607 0.0367,-0.80955 0.17476,-1.10883 0.23794,-0.51604 0.78768,-1.09273 1.27903,-1.34171 0.75035,-0.38023 1.81044,-0.33339 2.40646,0.10632 0.28191,0.20798 0.39568,0.19176 0.39568,-0.0564 0,-0.14632 0.0469,-0.15902 0.50676,-0.13711 l 0.50676,0.0241 0,2.47299 0,2.47299 -0.50676,0.0241 c -0.45983,0.0219 -0.50676,0.009 -0.50676,-0.1371 0,-0.2554 -0.12812,-0.27012 -0.44998,-0.0517 -0.59029,0.40059 -1.46569,0.4797 -2.1968,0.19853 z m 1.97485,-1.17737 c 0.40113,-0.31913 0.67193,-0.85494 0.67193,-1.3295 0,-0.47456 -0.2708,-1.01038 -0.67193,-1.32949 -0.25132,-0.19995 -0.39853,-0.24972 -0.81082,-0.27415 -0.45128,-0.0267 -0.54428,-0.003 -0.893,0.22016 -0.4394,0.28219 -0.78484,0.89112 -0.78484,1.38348 0,0.49236 0.34544,1.10129 0.78484,1.38349 0.34872,0.22394 0.44172,0.24687 0.893,0.22014 0.41229,-0.0244 0.5595,-0.0742 0.81082,-0.27413 z m -21.65132,1.06977 c -0.35981,-0.22117 -0.75832,-0.58615 -0.89337,-0.81818 -0.0571,-0.0981 -0.11038,-0.72279 -0.13491,-1.58109 l -0.0405,-1.41893 -0.28378,-0.0405 -0.28379,-0.0405 0,-0.48649 0,-0.4865 0.28379,-0.0405 0.28378,-0.0405 0.0405,-0.64866 0.0405,-0.64865 0.28377,-0.0968 c 0.15609,-0.0532 0.38275,-0.0988 0.50372,-0.10134 l 0.21994,-0.005 0.0233,0.75001 0.0233,0.75 0.4054,0.0405 0.40542,0.0405 0.0249,0.39144 c 0.0308,0.48363 -0.065,0.60652 -0.49749,0.638 l -0.33829,0.0247 0,1.24287 0,1.24286 0.29625,0.25714 c 0.16294,0.14144 0.38186,0.31785 0.4865,0.39203 l 0.19024,0.13488 -0.19371,0.37188 c -0.22549,0.43292 -0.37702,0.46455 -0.8456,0.17653 z m -3.66553,0.0165 c -0.0222,-0.0579 -0.0308,-1.50995 -0.0191,-3.22673 l 0.0213,-3.12142 0.56759,0 0.56757,0 0,3.20273 0,3.20273 -0.54842,0.024 c -0.39293,0.0171 -0.55988,-0.006 -0.58883,-0.0813 z m 5.27045,3.2e-4 c -0.0222,-0.0581 -0.0309,-1.51029 -0.0193,-3.22707 l 0.0213,-3.1214 0.48648,0 0.48649,0 0.0229,0.91217 c 0.0126,0.5017 0.0375,0.91216 0.0554,0.91216 0.0179,0 0.21859,-0.1157 0.44605,-0.25707 0.99163,-0.61643 2.22309,-0.27223 2.78555,0.77858 0.16668,0.3114 0.17656,0.4342 0.17656,2.19473 l 0,1.86489 -0.48649,0 -0.48648,0 -0.0424,-1.62164 c -0.0348,-1.33167 -0.0676,-1.6685 -0.18382,-1.88377 -0.18793,-0.34838 -0.52148,-0.50813 -1.06086,-0.50813 -0.35994,0 -0.49123,0.04 -0.69504,0.21144 -0.4284,0.36047 -0.44752,0.44537 -0.4909,2.18046 l -0.0405,1.62164 -0.46719,0.0243 c -0.32747,0.017 -0.47933,-0.007 -0.50775,-0.0813 l 0,-2e-5 z m 6.97295,-22.3635 c -0.33151,-0.10123 -0.73561,-0.540456 -0.83431,-0.906805 -0.0827,-0.307257 -0.0305,-0.705771 0.13237,-1.010166 0.27847,-0.520337 -1.67625,-2.076624 -4.05934,-3.23194 -2.0588,-0.998063 -4.28973,-1.664604 -6.95299,-2.077306 -1.01487,-0.157265 -1.50289,-0.182677 -3.5676,-0.185781 -2.55721,-0.0035 -3.32765,0.06521 -5.43247,0.486737 -1.76628,0.353736 -1.9073,0.407478 -2.22302,0.846913 -0.63698,0.88664 -1.83037,0.813949 -2.25107,-0.137112 -0.51169,-1.156776 0.6984,-2.248991 1.82357,-1.645944 l 0.30655,0.164307 1.27333,-0.282725 c 3.36335,-0.746784 6.35793,-0.922894 9.57638,-0.563169 3.8986,0.43574 7.28245,1.574493 10.06197,3.386134 0.37905,0.247063 0.70178,0.412876 0.71715,0.36847 0.0455,-0.131321 -0.62309,-0.941529 -1.26505,-1.533052 -1.35691,-1.250314 -2.41055,-1.890864 -7.32246,-4.451641 -2.36854,-1.234805 -3.78607,-2.136665 -5.00122,-3.181833 -0.45504,-0.391379 -0.59921,-0.47132 -0.85411,-0.473556 -0.97575,-0.0081 -1.59716,-0.933016 -1.21218,-1.803325 0.2299,-0.519758 0.59226,-0.753443 1.1683,-0.753443 0.7466,0 1.17857,0.422466 1.27588,1.247801 0.0657,0.557122 0.0742,0.56728 1.21125,1.438539 0.80966,0.620432 1.97882,1.326862 3.71015,2.241752 0.79784,0.421597 2.0709,1.094173 2.829,1.494586 3.9842,2.104397 5.86472,3.65942 7.01453,5.800394 0.18559,0.345606 0.36166,0.626733 0.39123,0.624729 0.0295,-0.0023 0.25994,-0.430736 0.51192,-0.952718 1.3154,-2.724724 3.56747,-4.769229 6.00192,-5.44873 2.67153,-0.74566 5.57486,0.04946 8.33734,2.283228 0.48698,0.393777 0.56255,0.427493 0.99422,0.443673 0.60154,0.02247 0.9642,0.24199 1.19797,0.724893 0.41377,0.854731 -0.19143,1.818163 -1.14212,1.818163 -0.71391,0 -1.20883,-0.446465 -1.27657,-1.151622 -0.036,-0.375013 -0.0709,-0.428118 -0.53441,-0.814633 -2.01218,-1.677865 -4.41907,-2.54075 -6.32031,-2.265855 -0.80823,0.116855 -1.69609,0.406912 -2.31534,0.756397 -1.91468,1.080576 -3.52648,3.116324 -4.37796,5.529496 -0.29731,0.842593 -0.3041,0.938969 -0.0908,1.288884 0.10575,0.173445 0.16197,0.40888 0.16216,0.679165 5.7e-4,0.881753 -0.82754,1.502495 -1.66389,1.247118 l 0,-2.3e-5 z"
       style="fill:#484848"
       sodipodi:nodetypes="csssscccccssccssssssccssssssssssssssccsssssscccccssccsssssssccsccccccccccccccccccccccccccccccccccccccccccssscccccsssccccccsssssssscccsssssssssssssssssssssssssssscc" />
    <path
       id="path2834"
       d="m 300.72905,117.07072 c -1.05693,-0.2848 -1.83981,-0.71676 -2.62396,-1.44783 -0.21183,-0.19748 -0.38515,-0.40559 -0.38515,-0.46247 0,-0.11466 1.63161,-1.33386 1.785,-1.33386 0.0532,0 0.27738,0.16254 0.49834,0.3612 0.60549,0.54439 1.18055,0.79476 1.92435,0.83782 2.05694,0.11907 3.54354,-1.0901 3.6423,-2.96255 0.0195,-0.36791 0.009,-0.66892 -0.0226,-0.66892 -0.0319,0 -0.24622,0.16619 -0.47638,0.36931 -0.4857,0.42862 -1.36738,0.87371 -1.98331,1.00122 -0.67928,0.14062 -1.7763,0.1091 -2.48149,-0.0712 -0.858,-0.21943 -1.52395,-0.59224 -2.19662,-1.22968 -0.66418,-0.62941 -1.09507,-1.314 -1.39623,-2.21828 -0.19281,-0.57895 -0.21654,-0.77498 -0.22089,-1.82434 -0.006,-1.3348 0.13685,-1.96586 0.65388,-2.89782 1.50027,-2.70431 5.46506,-3.57368 7.6362,-1.67441 0.22382,0.19579 0.42669,0.35598 0.4508,0.35598 0.0241,0 0.0548,-0.22804 0.068,-0.50676 l 0.0242,-0.50676 1.07433,-0.0226 1.07433,-0.0226 0,5.21916 c 0,4.92904 -0.009,5.2539 -0.15989,5.84432 -0.44716,1.74837 -1.75604,3.14724 -3.49679,3.73721 -0.92842,0.31466 -2.47113,0.37108 -3.38835,0.12394 z m 2.64716,-6.5562 c 0.8951,-0.27859 1.51011,-0.8375 1.94644,-1.76888 0.1996,-0.42605 0.22169,-0.56243 0.22169,-1.36928 0,-0.87142 -0.008,-0.91299 -0.30282,-1.50882 -1.01905,-2.0619 -3.57046,-2.45633 -5.12672,-0.79255 -1.18505,1.2669 -1.20074,3.31099 -0.0351,4.57552 0.83517,0.90604 2.09802,1.23703 3.29656,0.86401 z m 31.41517,2.57565 c -2.26457,-0.3484 -4.1175,-2.00967 -4.69524,-4.20959 -0.21034,-0.80091 -0.18831,-2.146 0.0478,-2.91895 0.31332,-1.02571 0.70066,-1.66941 1.46588,-2.43601 0.55415,-0.55518 0.82835,-0.75955 1.38068,-1.02907 1.02239,-0.49892 1.56521,-0.62096 2.75677,-0.61976 0.87776,0.001 1.10065,0.0299 1.66389,0.21625 1.5886,0.52575 2.90883,1.72398 3.52826,3.20224 0.30429,0.72617 0.49724,1.72262 0.46738,2.41374 l -0.0243,0.56344 -4.40927,0.021 -4.40926,0.021 0.0432,0.32225 c 0.10934,0.81482 0.81593,1.67539 1.74094,2.12019 0.71813,0.34533 1.72952,0.41384 2.50224,0.16949 0.58648,-0.18546 1.28617,-0.63174 1.68829,-1.07682 0.15914,-0.17616 0.3533,-0.31948 0.43144,-0.31851 0.18542,0.002 1.74349,0.90101 1.78446,1.02926 0.0426,0.13325 -0.6295,0.8402 -1.23238,1.29633 -0.58555,0.44301 -1.60145,0.94358 -2.27485,1.12089 -0.61209,0.16118 -1.78954,0.2152 -2.4559,0.1127 z m 3.82864,-6.79505 c 0.0244,-0.0396 -0.0833,-0.32716 -0.23928,-0.63909 -0.33407,-0.66775 -0.83229,-1.15962 -1.48412,-1.46519 -0.41085,-0.19259 -0.55572,-0.21571 -1.35205,-0.21571 -0.82518,0 -0.92695,0.0177 -1.36036,0.23723 -0.56645,0.28685 -1.13216,0.87131 -1.39983,1.44624 -0.3591,0.77132 -0.60727,0.70844 2.79594,0.70844 1.65529,0 3.01513,-0.0322 3.0397,-0.0719 z m -10.40583,6.43302 c -1.29662,-0.69611 -2.04654,-1.3943 -2.37328,-2.20958 -0.17727,-0.44231 -0.1871,-0.585 -0.22734,-3.30017 l -0.042,-2.83785 -0.60812,-0.0405 -0.60811,-0.0405 -0.0226,-1.07088 -0.0226,-1.07088 0.63072,-0.0237 0.63071,-0.0237 0.0405,-1.4189 0.0405,-1.418893 1.05217,-0.298766 c 0.7493,-0.212757 1.08142,-0.274491 1.15377,-0.214448 0.0738,0.06127 0.1076,0.530588 0.1235,1.717667 l 0.0219,1.63334 0.87397,0.023 0.87396,0.023 -0.0226,1.07155 -0.0226,1.07157 -0.87163,0.023 -0.87163,0.023 4.8e-4,2.44999 c 2.5e-4,1.39104 0.0357,2.57675 0.0819,2.74329 0.14267,0.51367 0.41743,0.80941 1.16534,1.25441 0.39638,0.23584 0.75681,0.46491 0.80095,0.50906 0.11223,0.11224 -0.81423,1.79506 -0.98728,1.79324 -0.0709,-5.7e-4 -0.43572,-0.16604 -0.81064,-0.36732 l -3e-5,0 z m -35.40208,0.0262 c -0.0218,-0.0569 -0.0301,-3.18661 -0.0185,-6.95488 l 0.021,-6.851411 1.18428,-0.02235 c 0.93111,-0.01761 1.20421,0.0012 1.2775,0.09 0.069,0.08316 0.0878,1.891691 0.0725,6.954851 l -0.0207,6.84254 -1.23822,0.0225 c -0.946,0.0171 -1.24755,-0.002 -1.27771,-0.0811 z m 16.79498,-0.0291 c -0.0271,-0.0705 -0.0492,-2.42094 -0.0492,-5.22313 0,-2.80218 0.0221,-5.1526 0.0492,-5.22314 0.0416,-0.10841 0.2233,-0.12825 1.17569,-0.12825 l 1.12646,0 0,0.51352 c 0,0.28243 0.0233,0.53685 0.0519,0.56537 0.0286,0.0285 0.24934,-0.12863 0.49069,-0.34921 2.00541,-1.83284 5.23859,-1.18184 6.46172,1.30107 0.49517,1.00519 0.54142,1.47988 0.517,5.30778 l -0.0212,3.32372 -1.13515,0 -1.13514,0 -0.0444,-3.40544 c -0.0491,-3.78092 -0.057,-3.83854 -0.60524,-4.47908 -0.4336,-0.50657 -0.97611,-0.70833 -1.90454,-0.70833 -0.96201,0 -1.45448,0.19385 -1.98143,0.77994 -0.64259,0.7147 -0.64308,0.71801 -0.67548,4.50882 l -0.0286,3.34463 -1.12158,0 c -0.94792,0 -1.12918,-0.0199 -1.17079,-0.12827 z m 11.58361,0.0292 c -0.0218,-0.057 -0.0302,-2.45705 -0.0185,-5.33343 l 0.021,-5.22976 1.13514,0 1.13515,0 0,5.31085 0,5.31086 -1.11653,0.0226 c -0.84845,0.0171 -1.12605,-0.002 -1.15617,-0.0811 z m 20.96779,-8.47546 c -0.37568,-0.19158 -0.58391,-0.49802 -0.62722,-0.92306 -0.12357,-1.21301 1.45681,-1.74986 2.14013,-0.72701 0.64824,0.97037 -0.46492,2.18444 -1.51291,1.65007 z m 0.83336,-0.24361 c 0.0373,-0.0605 -0.34176,-0.55289 -0.38133,-0.49536 -0.18368,0.26697 -0.2773,0.46689 -0.23736,0.50682 0.0711,0.0711 0.57342,0.0619 0.61869,-0.0116 z m -0.75804,-0.79681 c 0,-0.45569 -0.0263,-0.60622 -0.10134,-0.58145 -0.28221,0.0931 -0.37085,0.79883 -0.13589,1.08192 0.18372,0.22137 0.23724,0.10853 0.23724,-0.50047 z m 1.29731,-0.0104 c 0,-0.40258 -0.43633,-0.83426 -0.84326,-0.83426 -0.16053,0 -0.29188,0.0365 -0.29188,0.0811 0,0.0446 0.0888,0.0811 0.19742,0.0811 0.37241,0 0.61339,0.14299 0.61339,0.36397 0,0.11315 -0.0436,0.27557 -0.0968,0.36085 -0.0756,0.12117 -0.074,0.20507 0.007,0.38379 l 0.10424,0.22871 0.15479,-0.19115 c 0.0862,-0.10644 0.15478,-0.31646 0.15478,-0.47407 z m -0.68359,-0.19467 c 0.07,-0.11305 -0.14117,-0.25268 -0.23706,-0.15678 -0.078,0.078 -0.002,0.24692 0.1098,0.24692 0.0394,0 0.0966,-0.0405 0.12722,-0.0901 z m -21.02827,-1.85852 c -0.75207,-0.15328 -1.51867,-0.7455 -1.83911,-1.420781 -0.26246,-0.553092 -0.32171,-1.125121 -0.17721,-1.71069 0.19474,-0.789152 0.40259,-0.959934 0.67055,-0.550972 0.1187,0.181159 0.12302,0.262467 0.0349,0.656452 -0.27521,1.229756 0.58506,2.332161 1.8199,2.332161 0.7456,0 1.34148,-0.37879 1.71033,-1.087267 0.21653,-0.415887 0.198,-1.159682 -0.0403,-1.61517 -0.16545,-0.316348 -0.17655,-0.394865 -0.0944,-0.668927 0.11154,-0.37243 0.2594,-0.393823 0.48939,-0.07088 0.59733,0.838875 0.69135,1.827035 0.25763,2.708023 -0.14213,0.288711 -0.39283,0.642941 -0.55712,0.787191 -0.60636,0.53239 -1.5299,0.79259 -2.27454,0.64082 z m 15.95506,-5.297244 c -0.82744,-0.186754 -1.42765,-0.655271 -1.78778,-1.395546 -0.21147,-0.434708 -0.32283,-1.442639 -0.17564,-1.589828 0.14577,-0.145763 0.57654,0.247747 0.63145,0.576836 0.0967,0.579801 0.22458,0.848569 0.56592,1.189901 0.79452,0.794515 1.95338,0.743784 2.73344,-0.119657 1.02662,-1.136344 0.24971,-2.928192 -1.33146,-3.070921 -0.52172,-0.04702 -0.96026,-0.26644 -0.96026,-0.480297 0,-0.277791 1.29089,-0.309561 1.88249,-0.04633 0.53376,0.237496 1.14407,0.834323 1.37027,1.340008 0.28615,0.639682 0.27188,1.559853 -0.0338,2.182427 -0.53531,1.090108 -1.7339,1.675376 -2.89459,1.413406 z m -40.83628,-0.296531 c -0.54543,-0.216081 -1.07036,-0.686069 -1.3695,-1.226119 -0.21927,-0.395885 -0.24051,-0.502223 -0.24051,-1.204495 0,-0.651218 0.0303,-0.831983 0.19645,-1.169435 0.55527,-1.128202 1.87506,-1.72877 3.04908,-1.387473 0.51958,0.151046 1.17343,0.555918 1.17343,0.726596 0,0.0593 -0.152,0.146447 -0.33776,0.193599 -0.28611,0.07262 -0.38529,0.0615 -0.64841,-0.07274 -1.27321,-0.64955 -2.74724,0.257116 -2.74181,1.686471 0.002,0.584005 0.19781,1.03179 0.60797,1.39192 0.40943,0.359493 0.75474,0.495921 1.25512,0.495921 0.66058,0 1.22157,-0.299137 1.59692,-0.851499 0.18338,-0.269881 0.76479,-0.543571 0.88959,-0.418783 0.11704,0.117051 -0.15856,0.711237 -0.51248,1.104886 -0.53682,0.597059 -1.04401,0.835007 -1.8524,0.869047 -0.50892,0.02143 -0.73849,-0.0081 -1.06569,-0.137911 z m 8.10816,-9.004859 c -0.56989,-0.219162 -1.10839,-0.715118 -1.38246,-1.273248 -0.19513,-0.397367 -0.22753,-0.561466 -0.22753,-1.152525 0,-0.567315 0.0351,-0.760531 0.19845,-1.092493 0.95398,-1.938642 3.63547,-2.003619 4.66446,-0.113044 0.19156,0.351964 0.24237,0.55864 0.27087,1.101817 0.0301,0.572342 0.0154,0.676143 -0.10146,0.721013 -0.089,0.03417 -0.21962,-0.02722 -0.37496,-0.176005 -0.18625,-0.178438 -0.2388,-0.300481 -0.24019,-0.557829 -0.005,-0.904512 -0.87451,-1.74912 -1.79969,-1.747916 -0.58771,5.68e-4 -0.95066,0.149239 -1.35329,0.55359 -0.53593,0.538232 -0.69664,1.169806 -0.4809,1.889892 0.19999,0.667502 0.98792,1.285826 1.63855,1.285826 0.31037,0 0.86197,0.344679 0.86197,0.538626 1e-5,0.245499 -1.05681,0.25956 -1.67382,0.02224 z"
       style="fill:#c91825"
       sodipodi:nodetypes="csssssssssssssssscccccssccsssssccssssssscccccsssssssccssssssccscccccccccccscccccccccssssccccccscccccsscccssscccccsssccccccccccccccssccssccssccssssscccccssccsssssssssssccssssssssssccssssssssssssssccsssssssssssssc" />
    <path
       transform="matrix(0.3926318,0,0,0.3926318,186.09259,74.545372)"
       sodipodi:type="arc"
       style="fill:#223343;stroke:#223343;stroke-width:0.50938309000000004;stroke-miterlimit:4;stroke-opacity:1;stroke-dasharray:none;fill-opacity:1"
       id="path4579-1"
       sodipodi:cx="306.47269"
       sodipodi:cy="122.73956"
       sodipodi:rx="4.1712165"
       sodipodi:ry="4.1712165"
       d="m 310.6439,122.73956 a 4.1712165,4.1712165 0 1 1 -8.34243,0 4.1712165,4.1712165 0 1 1 8.34243,0 z" />
  </g>
</svg>
